<?xml version="1.0" encoding="UTF-8" standalone="no"?>
<!-- Created with Inkscape (http://www.inkscape.org/) -->

<svg
   xmlns:dc="http://purl.org/dc/elements/1.1/"
   xmlns:cc="http://creativecommons.org/ns#"
   xmlns:rdf="http://www.w3.org/1999/02/22-rdf-syntax-ns#"
   xmlns:svg="http://www.w3.org/2000/svg"
   xmlns="http://www.w3.org/2000/svg"
   xmlns:sodipodi="http://sodipodi.sourceforge.net/DTD/sodipodi-0.dtd"
   xmlns:inkscape="http://www.inkscape.org/namespaces/inkscape"
   width="40"
   height="40"
   viewBox="0 0 40 40"
   id="svg2"
   version="1.1"
   inkscape:version="0.91 r13725"
   sodipodi:docname="sBtn.svg">
  <defs
     id="defs4" />
  <sodipodi:namedview
     id="base"
     pagecolor="#ffffff"
     bordercolor="#666666"
     borderopacity="1.0"
     inkscape:pageopacity="0.0"
     inkscape:pageshadow="2"
     inkscape:zoom="17.192296"
     inkscape:cx="24.002137"
     inkscape:cy="17.761237"
     inkscape:document-units="px"
     inkscape:current-layer="layer1"
     showgrid="true"
     units="px"
     inkscape:window-width="1920"
     inkscape:window-height="1017"
     inkscape:window-x="-8"
     inkscape:window-y="-8"
     inkscape:window-maximized="1">
    <inkscape:grid
       type="xygrid"
       id="grid4147" />
  </sodipodi:namedview>
  <metadata
     id="metadata7">
    <rdf:RDF>
      <cc:Work
         rdf:about="">
        <dc:format>image/svg+xml</dc:format>
        <dc:type
           rdf:resource="http://purl.org/dc/dcmitype/StillImage" />
        <dc:title />
      </cc:Work>
    </rdf:RDF>
  </metadata>
  <g
     inkscape:label="Layer 1"
     inkscape:groupmode="layer"
     id="layer1"
     transform="translate(0,-1012.3622)"
     style="display:inline">
    <g
       id="g4216"
       transform="matrix(0.74963241,0,0,0.74963241,-39.459761,275.97697)">
      <g
         id="g4220"
         transform="matrix(0.52920766,0,0,0.52920766,90.892422,470.50897)"
         style="fill:#666666">
        <path
           id="path4222"
           d="M -27,4 A 13,13 0 0 0 -40,17 13,13 0 0 0 -27,30 13,13 0 0 0 -14,17 13,13 0 0 0 -27,4 Z m 0,3 A 10,10 0 0 1 -17,17 10,10 0 0 1 -27,27 10,10 0 0 1 -37,17 10,10 0 0 1 -27,7 Z"
           transform="translate(0,988.36)"
           inkscape:connector-curvature="0"
           style="opacity:0.98999999;fill:#666666" />
        <rect
           id="rect4224"
           height="5"
           width="25"
           y="522.92999"
           x="871.48999"
           transform="matrix(0.5,0.86603,-0.86603,0.5,0,0)"
           style="opacity:0.98999999;fill:#666666" />
        <path
           id="path4226"
           d="m -27.213,8.3457 c -4.568,6.45e-5 -8.2712,3.684 -8.2715,8.2285 0.0033,1.2657 0.48741,2.9494 0.86719,3.6465 1.1127,2.0423 1.8873,0.71272 1.4297,-1.4863 -0.07513,-0.36103 -0.38652,-1.4231 -0.38867,-2.1602 -4.2e-5,-3.4962 2.849,-6.3304 6.3633,-6.3301 0.65017,9.89e-4 0.99031,0.03275 2.2355,0.20103 1.2452,0.16828 2.1337,0.38554 1.5023,-0.63046 -0.63139,-1.016 -2.5855,-1.4657 -3.7378,-1.469 z"
           transform="translate(0,988.36)"
           inkscape:connector-curvature="0"
           style="opacity:0.98999999;fill:#666666" />
      </g>
    </g>
  </g>
</svg>
